<?xml version="1.0" standalone="no"?>
<!DOCTYPE svg PUBLIC "-//W3C//DTD SVG 1.1//EN" "http://www.w3.org/Graphics/SVG/1.1/DTD/svg11.dtd" >
<svg xmlns="http://www.w3.org/2000/svg" xmlns:xlink="http://www.w3.org/1999/xlink" version="1.1">
<metadata></metadata>
<defs>
<font id="frauleinregular" horiz-adv-x="1139" >
<font-face units-per-em="2048" ascent="1638" descent="-410" />
<missing-glyph horiz-adv-x="569" />
<glyph horiz-adv-x="0" />
<glyph unicode="&#xd;" horiz-adv-x="569" />
<glyph unicode=" "  horiz-adv-x="569" />
<glyph unicode="&#x09;" horiz-adv-x="569" />
<glyph unicode="&#xa0;" horiz-adv-x="569" />
<glyph unicode="!" horiz-adv-x="569" />
<glyph unicode="&#x22;" horiz-adv-x="727" />
<glyph unicode="#" />
<glyph unicode="$" />
<glyph unicode="%" horiz-adv-x="1821" />
<glyph unicode="&#x26;" horiz-adv-x="1366" />
<glyph unicode="'" horiz-adv-x="224" d="M0 431q0 -60 60 -60t60 61l1 109q-1 60 -61 60t-60 -60v-110z" />
<glyph unicode="(" horiz-adv-x="682" />
<glyph unicode=")" horiz-adv-x="682" />
<glyph unicode="*" horiz-adv-x="797" />
<glyph unicode="+" horiz-adv-x="1196" />
<glyph unicode="," horiz-adv-x="224" d="M0 -46q0 -60 60 -60t60 61l1 108q-1 60 -61 60t-60 -60v-109z" />
<glyph unicode="-" horiz-adv-x="401" d="M0 299q0 -60 55 -60h195q50 0 50 60t-52 60h-192q-56 0 -56 -60z" />
<glyph unicode="." horiz-adv-x="224" d="M0 59q0 -60 60 -60t60 60t-60 60t-60 -60z" />
<glyph unicode="/" horiz-adv-x="569" />
<glyph unicode="0" horiz-adv-x="941" d="M0 240q0 -241 241 -241h360q240 0 240 241v119q0 240 -240 240l-361 1q-239 0 -240 -240v-120zM119 359q0 122 121 122h360q121 -2 121 -122v-119q0 -121 -121 -121h-360q-120 0 -120 120z" />
<glyph unicode="1" horiz-adv-x="224" d="M0 59q0 -60 60 -60t60 61l1 481q-1 60 -61 60t-60 -60v-482z" />
<glyph unicode="2" horiz-adv-x="942" d="M0 60q0 -60 62 -60h718q60 0 60 59t-60 60h-658v60q-1 61 60 61h477q181 0 181 179t-181 179l-598 1q-58 0 -58 -59t58 -60l598 1q62 -3 61.5 -62t-61.5 -59h-478q-180 0 -181 -180v-120z" />
<glyph unicode="3" horiz-adv-x="944" d="M0 58.5q0 -59.5 60 -59.5h598q181 0 181 179v241q0 179 -182 179h-597q-60 0 -60 -60t60 -60h598q60 -1 62 -61v-59h-541q-60 0 -60 -60t60 -60h541v-60q0 -60 -62 -60h-598q-60 0 -60 -59.5z" />
<glyph unicode="4" horiz-adv-x="947" d="M0 59q0 -60 60 -60h662l-1 -61q0 -60 61 -59.5t61 60.5v601q0 60 -59.5 60t-60.5 -60v-422h-604l1 181q0 61 -60 61t-60 -62v-239z" />
<glyph unicode="5" horiz-adv-x="942" d="M0 59q0 -59 60 -59h600q181 0 180.5 180t-181.5 180h-540v121l660 -1q58 1 58.5 59.5t-58.5 58.5l-717 1q-62 -2 -62 -62v-235q0 -62 60 -62h598q61 0 60.5 -60t-59.5 -61h-599q-60 -1 -60 -60z" />
<glyph unicode="6" horiz-adv-x="943" d="M0 240q0 -241 240 -241h419q182 0 182.5 180t-182.5 181h-539q0 118 120 120h541q58 0 58.5 59.5t-58.5 59.5l-541 -1q-240 0 -240 -240v-118zM120 240h537q64 0 64 -60.5t-64 -60.5h-416q-121 0 -121 121z" />
<glyph unicode="7" horiz-adv-x="944" d="M0 421q0 -62 60 -62t60 61l-1 61h604v-422q1 -60 60.5 -60t59.5 60v482q0 60 -60 60h-723q-60 0 -60 -61v-119z" />
<glyph unicode="8" horiz-adv-x="944" d="M0 178q0 -179 179 -179l482 1q179 0 177 177q-1 121 -57 124q57 0 58 118q1 180 -180 180h-480q-179 0 -179 -179q3 -119 60 -122q-59 -1 -60 -120zM120 179q0 59 59 59h480q60 1 60.5 -58t-59.5 -58l-480 -1q-60 -1 -60 58zM120 418.5q0 59.5 60 59.5h481 q58 -1 58.5 -60t-58.5 -59h-481q-60 0 -60 59.5z" />
<glyph unicode="9" horiz-adv-x="943" d="M0.5 419q-0.5 -180 181.5 -181h539q0 -118 -120 -120h-541q-57 0 -57.5 -59.5t57.5 -59.5l541 1q240 0 240 240v118q0 241 -240 241h-419q-181 0 -181.5 -180zM120 418.5q0 60.5 64 60.5h416q121 0 121 -121h-537q-64 0 -64 60.5z" />
<glyph unicode=":" horiz-adv-x="569" />
<glyph unicode=";" horiz-adv-x="569" />
<glyph unicode="&#x3c;" horiz-adv-x="1196" />
<glyph unicode="=" horiz-adv-x="1196" />
<glyph unicode="&#x3e;" horiz-adv-x="1196" />
<glyph unicode="?" />
<glyph unicode="@" horiz-adv-x="1366" />
<glyph unicode="A" horiz-adv-x="945" d="M0 59q0 -60 53 -60t67 59l38 181h518l47 -178q16 -61 68.5 -61t52.5 60l-111 480q-11 61 -71 61h-482q-60 0 -76 -60zM179 360l28 120h423l31 -120h-482z" />
<glyph unicode="B" horiz-adv-x="944" d="M0 59q0 -60 60 -60l603 1q178 0 179 174q0 125 -58 128q58 0 58 120q0 179 -181 179h-601q-60 0 -60 -60v-482zM120 120v119h541h2q60 0 60 -59q0 -58 -59 -58h-2zM120 360v120h543q60 -1 60 -61q0 -59 -60 -59h-543z" />
<glyph unicode="C" horiz-adv-x="940" d="M0 240q0 -241 240 -241h541q60 0 60 61q0 59 -59 59h-541q-121 0 -121 121v119q0 120 120 122h541q58 0 58 59.5t-58 59.5l-541 -1q-240 0 -240 -240v-119z" />
<glyph unicode="D" horiz-adv-x="941" d="M0 61q0 -62 60 -62h541q240 0 240 241v119q0 240 -240 240l-541 1q-59 0 -60 -59v-480zM119 481h481q121 -2 121 -122v-119q0 -121 -121 -121h-480z" />
<glyph unicode="E" horiz-adv-x="944" d="M0 59q0 -60 60 -60h723q60 0 60 60t-60 60h-663v120h543q60 0 60 60.5t-60 60.5h-543v120h663q60 0 60 60.5t-60 60.5h-723q-60 0 -60 -60v-482z" />
<glyph unicode="F" horiz-adv-x="944" d="M0 59q0 -60 59.5 -60t60.5 59v181h543q60 0 60 60.5t-60 60.5h-543v120h663q60 0 60 60.5t-60 60.5h-723q-60 0 -60 -60v-482z" />
<glyph unicode="G" horiz-adv-x="943" d="M0 240q0 -241 240 -241h480q121 0 122 120v121q0 120 -122 121h-298q-61 0 -61 -60.5t60 -60.5h300v-121h-480q-121 0 -121 121v119q0 120 120 122h541q59 0 59 60q0 59 -59 59l-541 -1q-240 0 -240 -240v-119z" />
<glyph unicode="H" horiz-adv-x="944" d="M0 59q0 -60 59.5 -60t60.5 59v181h603v-179q0 -61 59 -61v1q60 0 60 60v481q1 59 -59 59t-61 -58l1 -183h-603v184q-1 57 -60.5 57t-59.5 -60v-481z" />
<glyph unicode="I" horiz-adv-x="224" d="M0 59q0 -60 60 -60t60 61l1 481q-1 60 -61 60t-60 -60v-482z" />
<glyph unicode="J" horiz-adv-x="945" d="M0 180q0 -181 182 -181h420q241 0 241 243v297q0 62 -60 62t-60 -61v-299q1 -122 -120 -122h-421q-62 0 -62 62q-1 60 -60.5 60t-59.5 -61z" />
<glyph unicode="K" horiz-adv-x="943" d="M0 60q-1 -60 59.5 -60t60.5 59l1 171l621 -217q23 -11 41 -11q32 0 50 35q9 19 9 34q0 29 -34 42l-576 188l576 188q33 12 33 39q0 15 -10 36q-19 37 -51 37q-17 0 -38 -11l-620 -217l-1 169q-1 58 -61 59h-2q-58 0 -58 -61v-480z" />
<glyph unicode="L" horiz-adv-x="944" d="M0 59q0 -60 60 -60h723q60 0 60 61v119q0 62 -60 62t-60 -61l1 -61h-604v422q-1 60 -60.5 60t-59.5 -60v-482z" />
<glyph unicode="M" horiz-adv-x="942" d="M0 60q-1 -60 59 -60t61 60v370l241 -163q32 -29 58 -29h1q26 0 60 30l241 163l1 -372q0 -58 59.5 -58t59.5 58v483q-1 31 -31 50q-14 9 -29 9q-18 0 -40 -12l-321 -216l-324 216q-16 9 -32 9q-18 0 -34 -12q-30 -22 -30 -45v-481z" />
<glyph unicode="N" horiz-adv-x="943" d="M0 59q0 -60 59.5 -60t60.5 59v364l600 -396q27 -27 73 -27q1 1 2 1q47 0 47 60v481q1 59 -59 59t-61 -58l-1 -362l-601 390q-32 30 -76 30t-44 -60v-481z" />
<glyph unicode="O" horiz-adv-x="941" d="M0 240q0 -241 241 -241h360q240 0 240 241v119q0 240 -240 240l-361 1q-239 0 -240 -240v-120zM119 359q0 122 121 122h360q121 -2 121 -122v-119q0 -121 -121 -121h-360q-120 0 -120 120z" />
<glyph unicode="P" horiz-adv-x="945" d="M0 59q0 -60 59.5 -60t60.5 59v181h542q181 0 181 181t-181 181h-602q-60 0 -60 -60v-482zM120 360v120h543q60 -1 60 -62q0 -58 -60 -58h-543z" />
<glyph unicode="Q" horiz-adv-x="941" d="M0 240q0 -240 240 -240h238v-60q0 -59 60 -60h2q59 0 59 59l-1 61q240 0 240 241v118q0 239 -240 239l-358 1q-239 0 -240 -239v-120zM119 239v120q0 121 120 122h359q121 -2 120 -122v-118q0 -121 -120 -121q1 59 -58 60h-1q-59 0 -60 -60h-240q-120 0 -120 119z" />
<glyph unicode="R" horiz-adv-x="941" d="M0 60q0 -60 59.5 -60t60.5 60v180h241l385 -229q19 -11 35 -11q27 0 47 32q11 19 11 35q0 28 -33 47l-230 125h83q181 1 181 181t-181 180h-599q-60 0 -60 -60v-480zM120 359v120h541q60 -1 60 -61q0 -59 -61 -59h-540z" />
<glyph unicode="S" horiz-adv-x="942" d="M0 59q0 -59 60 -59h600q181 0 181 179q0 181 -182 181h-478q-62 0 -62 60q0 58 62 61l598 -1q59 1 59 61q0 58 -59 58l-598 -1q-181 0 -181 -179t181 -179h477q61 0 61 -59q0 -61 -60 -62h-599q-60 -1 -60 -60z" />
<glyph unicode="T" horiz-adv-x="944" d="M1 541.5q0 -59.5 59 -60.5h301v-423q0 -60 60.5 -60t60.5 60v423h302q59 1 59 60.5t-60 59.5h-722q-60 0 -60 -59.5z" />
<glyph unicode="U" horiz-adv-x="947" d="M0 241q0 -242 241 -242h361q241 0 241 243v297q0 62 -60 62t-60 -61v-299q1 -122 -120 -122h-362q-121 0 -121 122v300q-1 60 -60.5 60t-59.5 -60v-300z" />
<glyph unicode="V" horiz-adv-x="944" d="M12 502l351 -473q33 -29 59 -29t61 29l346 471q14 18 14 36q0 24 -27 46q-20 17 -39 18q-24 0 -45 -27l-309 -438l-315 443q-22 21 -43 21t-39 -18q-24 -23 -24 -48q0 -15 10 -31z" />
<glyph unicode="W" horiz-adv-x="940" d="M2 528l58 -469q6 -43 33 -55q10 -5 22 -4q19 0 41 12l264 215l260 -215q26 -14 46 -14q12 0 22 5q28 13 32 55l59 467q2 9 2 17q-1 45 -53 55q-11 2 -20 2q-42 0 -49 -44l-53 -391l-187 168q-35 28 -60 28l-1 1q-25 0 -58 -29l-185 -168l-55 388q-8 47 -52 47 q-8 1 -18 -1q-50 -9 -50 -53q0 -8 2 -17z" />
<glyph unicode="X" horiz-adv-x="940" d="M13 30q20 -30 46 -30q17 0 37 13l324 216l321 -216q20 -13 37 -13q26 0 46 30q13 20 13 36q0 26 -31 47l-275 188l276 187q30 20 30 47q0 17 -13 37q-20 30 -46 30q-17 0 -37 -13l-321 -216l-324 216q-20 13 -37 13q-26 0 -46 -30q-13 -20 -13 -37q0 -26 30 -47l279 -188 l-279 -187q-30 -20 -30 -47q0 -16 13 -36z" />
<glyph unicode="Y" horiz-adv-x="937" d="M13 572q-13 -20 -13 -37q0 -27 30 -47l330 -221l1 -207q0 -60 59.5 -60t60.5 61l-1 207l327 220q30 20 30 47q0 17 -13 37q-20 30 -46 30q-17 0 -37 -13l-321 -216l-324 216q-20 13 -37 13q-26 0 -46 -30z" />
<glyph unicode="Z" horiz-adv-x="942" d="M-1 43q0 -44 60 -44h723q60 0 60 59.5t-60 60.5h-543l581 362q21 24 21 68q0 51 -60 51h-724h-2q-56 0 -56 -59q0 -60 57 -61h544l-575 -365q-26 -28 -26 -72z" />
<glyph unicode="[" horiz-adv-x="569" />
<glyph unicode="\" horiz-adv-x="1149" />
<glyph unicode="]" horiz-adv-x="569" />
<glyph unicode="^" horiz-adv-x="961" />
<glyph unicode="_" />
<glyph unicode="`" horiz-adv-x="682" />
<glyph unicode="a" horiz-adv-x="945" d="M0 59q0 -60 53 -60t67 59l38 181h518l47 -178q16 -61 68.5 -61t52.5 60l-111 480q-11 61 -71 61h-482q-60 0 -76 -60zM179 360l28 120h423l31 -120h-482z" />
<glyph unicode="b" horiz-adv-x="944" d="M0 59q0 -60 60 -60l603 1q178 0 179 174q0 125 -58 128q58 0 58 120q0 179 -181 179h-601q-60 0 -60 -60v-482zM120 120v119h541h2q60 0 60 -59q0 -58 -59 -58h-2zM120 360v120h543q60 -1 60 -61q0 -59 -60 -59h-543z" />
<glyph unicode="c" horiz-adv-x="940" d="M0 240q0 -241 240 -241h541q60 0 60 61q0 59 -59 59h-541q-121 0 -121 121v119q0 120 120 122h541q58 0 58 59.5t-58 59.5l-541 -1q-240 0 -240 -240v-119z" />
<glyph unicode="d" horiz-adv-x="941" d="M0 61q0 -62 60 -62h541q240 0 240 241v119q0 240 -240 240l-541 1q-59 0 -60 -59v-480zM119 481h481q121 -2 121 -122v-119q0 -121 -121 -121h-480z" />
<glyph unicode="e" horiz-adv-x="944" d="M0 59q0 -60 60 -60h723q60 0 60 60t-60 60h-663v120h543q60 0 60 60.5t-60 60.5h-543v120h663q60 0 60 60.5t-60 60.5h-723q-60 0 -60 -60v-482z" />
<glyph unicode="f" horiz-adv-x="944" d="M0 59q0 -60 59.5 -60t60.5 59v181h543q60 0 60 60.5t-60 60.5h-543v120h663q60 0 60 60.5t-60 60.5h-723q-60 0 -60 -60v-482z" />
<glyph unicode="g" horiz-adv-x="943" d="M0 240q0 -241 240 -241h480q121 0 122 120v121q0 120 -122 121h-298q-61 0 -61 -60.5t60 -60.5h300v-121h-480q-121 0 -121 121v119q0 120 120 122h541q59 0 59 60q0 59 -59 59l-541 -1q-240 0 -240 -240v-119z" />
<glyph unicode="h" horiz-adv-x="944" d="M0 59q0 -60 59.5 -60t60.5 59v181h603v-179q0 -61 59 -61v1q60 0 60 60v481q1 59 -59 59t-61 -58l1 -183h-603v184q-1 57 -60.5 57t-59.5 -60v-481z" />
<glyph unicode="i" horiz-adv-x="224" d="M0 59q0 -60 60 -60t60 61l1 481q-1 60 -61 60t-60 -60v-482z" />
<glyph unicode="j" horiz-adv-x="945" d="M0 180q0 -181 182 -181h420q241 0 241 243v297q0 62 -60 62t-60 -61v-299q1 -122 -120 -122h-421q-62 0 -62 62q-1 60 -60.5 60t-59.5 -61z" />
<glyph unicode="k" horiz-adv-x="943" d="M0 60q-1 -60 59.5 -60t60.5 59l1 171l621 -217q23 -11 41 -11q32 0 50 35q9 19 9 34q0 29 -34 42l-576 188l576 188q33 12 33 39q0 15 -10 36q-19 37 -51 37q-17 0 -38 -11l-620 -217l-1 169q-1 58 -61 59h-2q-58 0 -58 -61v-480z" />
<glyph unicode="l" horiz-adv-x="944" d="M0 59q0 -60 60 -60h723q60 0 60 61v119q0 62 -60 62t-60 -61l1 -61h-604v422q-1 60 -60.5 60t-59.5 -60v-482z" />
<glyph unicode="m" horiz-adv-x="942" d="M0 60q-1 -60 59 -60t61 60v370l241 -163q32 -29 58 -29h1q26 0 60 30l241 163l1 -372q0 -58 59.5 -58t59.5 58v483q-1 31 -31 50q-14 9 -29 9q-18 0 -40 -12l-321 -216l-324 216q-16 9 -32 9q-18 0 -34 -12q-30 -22 -30 -45v-481z" />
<glyph unicode="n" horiz-adv-x="943" d="M0 59q0 -60 59.5 -60t60.5 59v364l600 -396q27 -27 73 -27q1 1 2 1q47 0 47 60v481q1 59 -59 59t-61 -58l-1 -362l-601 390q-32 30 -76 30t-44 -60v-481z" />
<glyph unicode="o" horiz-adv-x="941" d="M0 240q0 -241 241 -241h360q240 0 240 241v119q0 240 -240 240l-361 1q-239 0 -240 -240v-120zM119 359q0 122 121 122h360q121 -2 121 -122v-119q0 -121 -121 -121h-360q-120 0 -120 120z" />
<glyph unicode="p" horiz-adv-x="945" d="M0 59q0 -60 59.5 -60t60.5 59v181h542q181 0 181 181t-181 181h-602q-60 0 -60 -60v-482zM120 360v120h543q60 -1 60 -62q0 -58 -60 -58h-543z" />
<glyph unicode="q" horiz-adv-x="941" d="M0 240q0 -240 240 -240h238v-60q0 -59 60 -60h2q59 0 59 59l-1 61q240 0 240 241v118q0 239 -240 239l-358 1q-239 0 -240 -239v-120zM119 239v120q0 121 120 122h359q121 -2 120 -122v-118q0 -121 -120 -121q1 59 -58 60h-1q-59 0 -60 -60h-240q-120 0 -120 119z" />
<glyph unicode="r" horiz-adv-x="941" d="M0 60q0 -60 59.5 -60t60.5 60v180h241l385 -229q19 -11 35 -11q27 0 47 32q11 19 11 35q0 28 -33 47l-230 125h83q181 1 181 181t-181 180h-599q-60 0 -60 -60v-480zM120 359v120h541q60 -1 60 -61q0 -59 -61 -59h-540z" />
<glyph unicode="s" horiz-adv-x="942" d="M0 59q0 -59 60 -59h600q181 0 181 179q0 181 -182 181h-478q-62 0 -62 60q0 58 62 61l598 -1q59 1 59 61q0 58 -59 58l-598 -1q-181 0 -181 -179t181 -179h477q61 0 61 -59q0 -61 -60 -62h-599q-60 -1 -60 -60z" />
<glyph unicode="t" horiz-adv-x="944" d="M1 541.5q0 -59.5 59 -60.5h301v-423q0 -60 60.5 -60t60.5 60v423h302q59 1 59 60.5t-60 59.5h-722q-60 0 -60 -59.5z" />
<glyph unicode="u" horiz-adv-x="947" d="M0 241q0 -242 241 -242h361q241 0 241 243v297q0 62 -60 62t-60 -61v-299q1 -122 -120 -122h-362q-121 0 -121 122v300q-1 60 -60.5 60t-59.5 -60v-300z" />
<glyph unicode="v" horiz-adv-x="944" d="M12 502l351 -473q33 -29 59 -29t61 29l346 471q14 18 14 36q0 24 -27 46q-20 17 -39 18q-24 0 -45 -27l-309 -438l-315 443q-22 21 -43 21t-39 -18q-24 -23 -24 -48q0 -15 10 -31z" />
<glyph unicode="w" horiz-adv-x="940" d="M2 528l58 -469q6 -43 33 -55q10 -5 22 -4q19 0 41 12l264 215l260 -215q26 -14 46 -14q12 0 22 5q28 13 32 55l59 467q2 9 2 17q-1 45 -53 55q-11 2 -20 2q-42 0 -49 -44l-53 -391l-187 168q-35 28 -60 28l-1 1q-25 0 -58 -29l-185 -168l-55 388q-8 47 -52 47 q-8 1 -18 -1q-50 -9 -50 -53q0 -8 2 -17z" />
<glyph unicode="x" horiz-adv-x="940" d="M13 30q20 -30 46 -30q17 0 37 13l324 216l321 -216q20 -13 37 -13q26 0 46 30q13 20 13 36q0 26 -31 47l-275 188l276 187q30 20 30 47q0 17 -13 37q-20 30 -46 30q-17 0 -37 -13l-321 -216l-324 216q-20 13 -37 13q-26 0 -46 -30q-13 -20 -13 -37q0 -26 30 -47l279 -188 l-279 -187q-30 -20 -30 -47q0 -16 13 -36z" />
<glyph unicode="y" horiz-adv-x="937" d="M13 572q-13 -20 -13 -37q0 -27 30 -47l330 -221l1 -207q0 -60 59.5 -60t60.5 61l-1 207l327 220q30 20 30 47q0 17 -13 37q-20 30 -46 30q-17 0 -37 -13l-321 -216l-324 216q-20 13 -37 13q-26 0 -46 -30z" />
<glyph unicode="z" horiz-adv-x="942" d="M-1 43q0 -44 60 -44h723q60 0 60 59.5t-60 60.5h-543l581 362q21 24 21 68q0 51 -60 51h-724h-2q-56 0 -56 -59q0 -60 57 -61h544l-575 -365q-26 -28 -26 -72z" />
<glyph unicode="{" horiz-adv-x="684" />
<glyph unicode="|" horiz-adv-x="1149" />
<glyph unicode="}" horiz-adv-x="684" />
<glyph unicode="~" horiz-adv-x="1196" />
<glyph unicode="&#xa1;" horiz-adv-x="682" />
<glyph unicode="&#xa2;" />
<glyph unicode="&#xa3;" />
<glyph unicode="&#xa5;" />
<glyph unicode="&#xa6;" horiz-adv-x="532" />
<glyph unicode="&#xa7;" />
<glyph unicode="&#xa8;" horiz-adv-x="682" />
<glyph unicode="&#xa9;" horiz-adv-x="1509" />
<glyph unicode="&#xaa;" horiz-adv-x="758" />
<glyph unicode="&#xab;" />
<glyph unicode="&#xac;" horiz-adv-x="1196" />
<glyph unicode="&#xad;" horiz-adv-x="401" d="M0 299q0 -60 55 -60h195q50 0 50 60t-52 60h-192q-56 0 -56 -60z" />
<glyph unicode="&#xae;" horiz-adv-x="1509" />
<glyph unicode="&#xaf;" horiz-adv-x="1131" />
<glyph unicode="&#xb0;" horiz-adv-x="819" />
<glyph unicode="&#xb1;" horiz-adv-x="1124" />
<glyph unicode="&#xb2;" horiz-adv-x="682" />
<glyph unicode="&#xb3;" horiz-adv-x="682" />
<glyph unicode="&#xb4;" horiz-adv-x="682" />
<glyph unicode="&#xb5;" horiz-adv-x="1180" />
<glyph unicode="&#xb6;" horiz-adv-x="1100" />
<glyph unicode="&#xb7;" horiz-adv-x="682" />
<glyph unicode="&#xb8;" horiz-adv-x="682" />
<glyph unicode="&#xb9;" horiz-adv-x="682" />
<glyph unicode="&#xba;" horiz-adv-x="748" />
<glyph unicode="&#xbb;" />
<glyph unicode="&#xbc;" horiz-adv-x="1708" />
<glyph unicode="&#xbd;" horiz-adv-x="1708" />
<glyph unicode="&#xbe;" horiz-adv-x="1708" />
<glyph unicode="&#xbf;" horiz-adv-x="1251" />
<glyph unicode="&#xc0;" horiz-adv-x="1366" />
<glyph unicode="&#xc1;" horiz-adv-x="1366" />
<glyph unicode="&#xc2;" horiz-adv-x="1366" />
<glyph unicode="&#xc3;" horiz-adv-x="1366" />
<glyph unicode="&#xc4;" horiz-adv-x="1366" />
<glyph unicode="&#xc5;" horiz-adv-x="1366" />
<glyph unicode="&#xc6;" horiz-adv-x="2048" />
<glyph unicode="&#xc7;" horiz-adv-x="1479" />
<glyph unicode="&#xc8;" horiz-adv-x="1366" />
<glyph unicode="&#xc9;" horiz-adv-x="1366" />
<glyph unicode="&#xca;" horiz-adv-x="1366" />
<glyph unicode="&#xcb;" horiz-adv-x="1366" />
<glyph unicode="&#xcc;" horiz-adv-x="569" />
<glyph unicode="&#xcd;" horiz-adv-x="569" />
<glyph unicode="&#xce;" horiz-adv-x="569" />
<glyph unicode="&#xcf;" horiz-adv-x="569" />
<glyph unicode="&#xd0;" horiz-adv-x="1479" />
<glyph unicode="&#xd1;" horiz-adv-x="1479" />
<glyph unicode="&#xd2;" horiz-adv-x="1593" />
<glyph unicode="&#xd3;" horiz-adv-x="1593" />
<glyph unicode="&#xd4;" horiz-adv-x="1593" />
<glyph unicode="&#xd5;" horiz-adv-x="1593" />
<glyph unicode="&#xd6;" horiz-adv-x="1593" />
<glyph unicode="&#xd7;" horiz-adv-x="1196" />
<glyph unicode="&#xd8;" horiz-adv-x="1593" />
<glyph unicode="&#xd9;" horiz-adv-x="1479" />
<glyph unicode="&#xda;" horiz-adv-x="1479" />
<glyph unicode="&#xdb;" horiz-adv-x="1479" />
<glyph unicode="&#xdc;" horiz-adv-x="1479" />
<glyph unicode="&#xdd;" horiz-adv-x="1366" />
<glyph unicode="&#xde;" horiz-adv-x="1366" />
<glyph unicode="&#xdf;" horiz-adv-x="1251" />
<glyph unicode="&#xe0;" />
<glyph unicode="&#xe1;" />
<glyph unicode="&#xe2;" />
<glyph unicode="&#xe3;" />
<glyph unicode="&#xe4;" />
<glyph unicode="&#xe5;" />
<glyph unicode="&#xe6;" horiz-adv-x="1821" />
<glyph unicode="&#xe7;" horiz-adv-x="1024" />
<glyph unicode="&#xe8;" />
<glyph unicode="&#xe9;" />
<glyph unicode="&#xea;" />
<glyph unicode="&#xeb;" />
<glyph unicode="&#xec;" horiz-adv-x="569" />
<glyph unicode="&#xed;" horiz-adv-x="569" />
<glyph unicode="&#xee;" horiz-adv-x="569" />
<glyph unicode="&#xef;" horiz-adv-x="569" />
<glyph unicode="&#xf0;" />
<glyph unicode="&#xf1;" />
<glyph unicode="&#xf2;" />
<glyph unicode="&#xf3;" />
<glyph unicode="&#xf4;" />
<glyph unicode="&#xf5;" />
<glyph unicode="&#xf6;" />
<glyph unicode="&#xf7;" horiz-adv-x="1124" />
<glyph unicode="&#xf8;" horiz-adv-x="1251" />
<glyph unicode="&#xf9;" />
<glyph unicode="&#xfa;" />
<glyph unicode="&#xfb;" />
<glyph unicode="&#xfc;" />
<glyph unicode="&#xfd;" horiz-adv-x="1024" />
<glyph unicode="&#xfe;" />
<glyph unicode="&#xff;" horiz-adv-x="1024" />
<glyph unicode="&#x152;" horiz-adv-x="2048" />
<glyph unicode="&#x153;" horiz-adv-x="1933" />
<glyph unicode="&#x178;" horiz-adv-x="1366" />
<glyph unicode="&#x2c6;" horiz-adv-x="682" />
<glyph unicode="&#x2dc;" horiz-adv-x="682" />
<glyph unicode="&#x2000;" horiz-adv-x="682" />
<glyph unicode="&#x2001;" horiz-adv-x="1365" />
<glyph unicode="&#x2002;" horiz-adv-x="682" />
<glyph unicode="&#x2003;" horiz-adv-x="1365" />
<glyph unicode="&#x2004;" horiz-adv-x="455" />
<glyph unicode="&#x2005;" horiz-adv-x="341" />
<glyph unicode="&#x2006;" horiz-adv-x="227" />
<glyph unicode="&#x2007;" horiz-adv-x="227" />
<glyph unicode="&#x2008;" horiz-adv-x="170" />
<glyph unicode="&#x2009;" horiz-adv-x="273" />
<glyph unicode="&#x200a;" horiz-adv-x="75" />
<glyph unicode="&#x2010;" horiz-adv-x="401" d="M0 299q0 -60 55 -60h195q50 0 50 60t-52 60h-192q-56 0 -56 -60z" />
<glyph unicode="&#x2011;" horiz-adv-x="401" d="M0 299q0 -60 55 -60h195q50 0 50 60t-52 60h-192q-56 0 -56 -60z" />
<glyph unicode="&#x2012;" horiz-adv-x="401" d="M0 299q0 -60 55 -60h195q50 0 50 60t-52 60h-192q-56 0 -56 -60z" />
<glyph unicode="&#x2013;" />
<glyph unicode="&#x2014;" horiz-adv-x="2048" />
<glyph unicode="&#x2018;" horiz-adv-x="455" />
<glyph unicode="&#x2019;" horiz-adv-x="455" />
<glyph unicode="&#x201a;" horiz-adv-x="455" />
<glyph unicode="&#x201c;" horiz-adv-x="682" />
<glyph unicode="&#x201d;" horiz-adv-x="682" />
<glyph unicode="&#x201e;" horiz-adv-x="682" />
<glyph unicode="&#x2022;" horiz-adv-x="717" />
<glyph unicode="&#x2026;" horiz-adv-x="2048" />
<glyph unicode="&#x202f;" horiz-adv-x="273" />
<glyph unicode="&#x2039;" horiz-adv-x="682" />
<glyph unicode="&#x203a;" horiz-adv-x="682" />
<glyph unicode="&#x205f;" horiz-adv-x="341" />
<glyph unicode="&#x20ac;" />
<glyph unicode="&#x2122;" horiz-adv-x="2048" />
<glyph unicode="&#x25fc;" horiz-adv-x="600" d="M0 0v600h600v-600h-600z" />
<glyph unicode="&#xfb01;" horiz-adv-x="1024" />
<glyph unicode="&#xfb02;" horiz-adv-x="1024" />
</font>
</defs>
</svg>
